Patient4_TMGait_0pt3_03_left_14_GRF.mot
version=1
nRows=58
nColumns=19
inDegrees=no
endheader
time	F1x	F1y	F1z	M1x	M1y	M1z	F2x	F2y	F2z	M2x	M2y	M2z	EC1x	EC1y	EC1z	EC2x	EC2y	EC2z
25.47	-8.2438	13.9962	0.97211	-2.9006	-5.0502	6.999	-22.7657	766.2734	-49.5461	284.9252	61.8685	757.4437	-0.0592	0.0182	-0.0073	-0.0462	0.0165	0.9585
25.4884	-5.6676	9.6116	0.68436	-2.0217	-3.5124	4.9183	-24.048	777.7514	-50.8477	289.4475	63.3545	768.3966	-0.0592	0.0182	-0.0073	-0.0462	0.0165	0.9585
25.5069	-3.4531	5.87	0.45816	-1.2789	-2.2073	3.1583	-25.2186	791.1038	-52.0354	294.589	64.6349	780.7845	-0.0592	0.0182	-0.0073	-0.0462	0.0165	0.9585
25.5253	-1.748	3.0058	0.29334	-0.7156	-1.2063	1.8336	-26.077	805.2574	-53.0226	299.9372	65.5428	793.4843	-0.0592	0.0182	-0.0073	-0.0462	0.0165	0.9585
25.5437	-0.5571	1.0251	0.17803	-0.32996	-0.50147	0.9374	-26.4484	818.8981	-53.7703	305.0108	65.9646	805.1744	-0.0592	0.0182	-0.0073	-0.0462	0.0165	0.9585
25.5621	0.18704	-0.19214	0.10178	-0.096322	-0.051237	0.40301	-26.2004	830.6248	-54.2524	309.3067	65.8172	814.4791	-0.0592	0.0182	-0.0073	-0.0462	0.0165	0.9585
25.5806	0.58024	-0.82438	0.05822	0.024926	0.19417	0.13154	-25.2451	839.1335	-54.4339	312.3607	65.0329	820.1465	-0.0592	0.0182	-0.0073	-0.0462	0.0165	0.9585
25.599	0.72078	-1.0702	0.042868	0.077996	0.28407	0.012107	-23.5531	843.4033	-54.2783	313.8115	63.5736	821.2292	-0.0592	0.0182	-0.0073	-0.0462	0.0165	0.9585
25.6174	0.6947	-1.1231	0.051222	0.10587	0.2649	-0.0638	-21.1674	842.8321	-53.7614	313.4494	61.4474	817.2182	-0.0592	0.0182	-0.0073	-0.0462	0.0165	0.9585
25.6359	0.56817	-1.1547	0.075536	0.15061	0.17868	-0.20169	-18.1739	837.3326	-52.883	311.2528	58.7092	808.1274	-0.0592	0.0182	-0.0073	-0.0462	0.0165	0.9585
25.6543	0.38776	-1.3061	0.10685	0.24939	0.060191	-0.49818	-14.6678	827.3788	-51.6752	307.4055	55.4477	794.5162	-0.0592	0.0182	-0.0073	-0.0462	0.0165	0.9585
25.6727	0.18456	-1.689	0.1372	0.43161	-0.065935	-1.0328	-10.7531	813.9333	-50.2098	302.2695	51.7939	777.4005	-0.0592	0.0182	-0.0073	-0.0462	0.0165	0.9585
25.6911	-0.013914	-2.3777	0.15788	0.71659	-0.17766	-1.8658	-6.5351	798.275	-48.5971	296.321	47.9146	758.0824	-0.0592	0.0182	-0.0073	-0.0462	0.0165	0.9585
25.7096	-0.17644	-3.3873	0.15948	1.1066	-0.25062	-3.0182	-2.1294	781.8137	-46.9646	290.0827	43.9888	737.9713	-0.0592	0.0182	-0.0073	-0.0462	0.0165	0.9585
25.728	-0.25991	-4.6514	0.12517	1.5781	-0.24741	-4.429	2.3313	765.9288	-45.4337	284.0651	40.1937	718.43	-0.0592	0.0182	-0.0073	-0.0462	0.0165	0.9585
25.7464	-0.20373	-5.9901	0.029435	2.068	-0.1174	-5.9162	6.7251	751.8385	-44.0997	278.7188	36.6753	700.6481	-0.0592	0.0182	-0.0073	-0.0462	0.0165	0.9585
25.7649	0.072321	-7.0654	-0.16144	2.4541	0.19819	-7.1318	10.9694	740.4748	-43.0199	274.389	33.5247	685.527	-0.0592	0.0182	-0.0073	-0.0462	0.0165	0.9585
25.7833	0.66222	-7.3317	-0.47878	2.5331	0.76252	-7.513	15.0037	732.3321	-42.2196	271.2587	30.7911	673.5511	-0.0592	0.0182	-0.0073	-0.0462	0.0165	0.9585
25.8017	1.6612	-5.9935	-0.94655	2.0118	1.635	-6.2398	18.767	727.3096	-41.7017	269.2861	28.4987	664.6587	-0.0592	0.0182	-0.0073	-0.0462	0.0165	0.9585
25.8201	3.1425	-1.9982	-1.5719	0.50814	2.8486	-2.2245	22.1992	724.67	-41.451	268.1895	26.647	658.2123	-0.0592	0.0182	-0.0073	-0.0462	0.0165	0.9585
25.8386	5.1253	5.8994	-2.3269	-2.4264	4.3743	5.8405	25.2368	723.1464	-41.4274	267.4895	25.2129	653.1032	-0.0592	0.0182	-0.0073	-0.0462	0.0165	0.9585
25.857	7.5193	18.9845	-3.1246	-7.2495	6.0793	19.328	27.8019	721.1118	-41.5632	266.5731	24.1539	647.9021	-0.0592	0.0182	-0.0073	-0.0462	0.0165	0.9585
25.8754	10.0474	38.2914	-3.7885	-14.3215	7.6685	39.3727	29.8116	716.7651	-41.7643	264.7667	23.4061	641.0269	-0.0592	0.0182	-0.0073	-0.0462	0.0165	0.9585
25.8939	12.0847	64.2127	-4.0399	-23.7622	8.6144	66.4697	31.1952	708.3746	-41.9055	261.4305	22.8791	630.9586	-0.0592	0.0182	-0.0073	-0.0462	0.0165	0.9585
25.9123	12.6496	96.1505	-3.4968	-35.3207	8.1543	100.1166	31.9092	694.5433	-41.845	256.0581	22.4641	616.4636	-0.0592	0.0182	-0.0073	-0.0462	0.0165	0.9585
25.9307	11.1907	132.5461	-1.7496	-48.3838	5.6512	138.8119	31.9538	674.449	-41.4627	248.3639	22.0558	596.8011	-0.0592	0.0182	-0.0073	-0.0462	0.0165	0.9585
25.9491	7.9687	170.9238	1.4375	-62.0105	0.946	180.0236	31.3727	648.026	-40.6965	238.3441	21.5798	571.8816	-0.0592	0.0182	-0.0073	-0.0462	0.0165	0.9585
25.9676	3.6303	208.2557	5.763	-75.1	-5.396	220.5792	30.2436	616.0449	-39.5487	226.2993	21.0026	542.3403	-0.0592	0.0182	-0.0073	-0.0462	0.0165	0.9585
25.986	-1.3036	242.421	10.4823	-86.9104	-12.3706	258.2777	28.6831	580.0904	-38.0792	212.8209	20.3266	509.5211	-0.0592	0.0182	-0.0073	-0.0462	0.0165	0.9585
26.0044	-6.6464	273.121	14.9387	-97.3604	-19.1958	292.8457	26.8421	542.2896	-36.3872	198.6896	19.5765	475.2434	-0.0592	0.0182	-0.0073	-0.0462	0.0165	0.9585
26.0229	-12.3064	301.1277	18.7544	-106.748	-25.4287	325.0936	24.89	504.7869	-34.5598	184.689	18.7615	441.3421	-0.0592	0.0182	-0.0073	-0.0462	0.0165	0.9585
26.0413	-18.0667	327.2057	21.8326	-115.3636	-30.883	355.7279	22.9772	469.2932	-32.655	171.443	17.8738	409.2774	-0.0592	0.0182	-0.0073	-0.0462	0.0165	0.9585
26.0597	-23.5719	351.6337	24.2629	-123.325	-35.5201	384.8456	21.1935	436.9151	-30.7438	159.3512	16.9341	379.9912	-0.0592	0.0182	-0.0073	-0.0462	0.0165	0.9585
26.0781	-28.4395	374.1488	26.182	-130.5684	-39.3486	411.9153	19.5497	408.2176	-28.9286	148.612	16.0145	353.9594	-0.0592	0.0182	-0.0073	-0.0462	0.0165	0.9585
26.0966	-32.3448	394.2464	27.6563	-136.9604	-42.3301	436.1382	18.0018	383.3772	-27.3155	139.2834	15.2126	331.3252	-0.0592	0.0182	-0.0073	-0.0462	0.0165	0.9585
26.115	-35.0851	411.6142	28.6676	-142.4412	-44.3836	456.9529	16.5061	362.3015	-25.9706	131.3313	14.5974	311.9995	-0.0592	0.0182	-0.0073	-0.0462	0.0165	0.9585
26.1334	-36.6204	426.3988	29.1918	-147.0998	-45.4701	474.3601	15.0588	344.652	-24.8865	124.6391	14.1698	295.682	-0.0592	0.0182	-0.0073	-0.0462	0.0165	0.9585
26.1519	-37.0766	439.2912	29.2454	-151.1922	-45.6412	489.0318	13.705	329.8156	-23.9838	118.9954	13.8603	281.8425	-0.0592	0.0182	-0.0073	-0.0462	0.0165	0.9585
26.1703	-36.6976	451.4615	28.9119	-155.1153	-45.0596	502.2176	12.5252	316.9124	-23.1453	114.0934	13.56	269.7356	-0.0592	0.0182	-0.0073	-0.0462	0.0165	0.9585
26.1887	-35.7849	464.3271	28.3751	-159.3304	-44.0189	515.4778	11.6006	304.8762	-22.2481	109.5582	13.1515	258.4757	-0.0592	0.0182	-0.0073	-0.0462	0.0165	0.9585
26.2071	-34.6411	479.183	27.9046	-164.2406	-42.9039	530.2653	10.9775	292.5659	-21.1786	104.9854	12.5322	247.1176	-0.0592	0.0182	-0.0073	-0.0462	0.0165	0.9585
26.2256	-33.4838	496.8374	27.7913	-170.0783	-42.0924	547.5122	10.6461	278.8902	-19.845	99.9841	11.6373	234.7526	-0.0592	0.0182	-0.0073	-0.0462	0.0165	0.9585
26.244	-32.3989	517.4556	28.2577	-176.8646	-41.8466	567.4491	10.5334	262.9682	-18.1915	94.2334	10.4495	220.6555	-0.0592	0.0182	-0.0073	-0.0462	0.0165	0.9585
26.2624	-31.3441	540.6063	29.406	-184.4322	-42.2603	589.6479	10.5232	244.2641	-16.2145	87.5321	9.0024	204.3933	-0.0592	0.0182	-0.0073	-0.0462	0.0165	0.9585
26.2809	-30.17	565.4105	31.2158	-192.4818	-43.2678	613.1786	10.4842	222.6816	-13.9745	79.8342	7.3813	185.8978	-0.0592	0.0182	-0.0073	-0.0462	0.0165	0.9585
26.2993	-28.6939	590.8046	33.5618	-200.669	-44.6882	636.9183	10.2843	198.6176	-11.5969	71.2661	5.7153	165.5023	-0.0592	0.0182	-0.0073	-0.0462	0.0165	0.9585
26.3177	-26.7905	615.7934	36.2435	-208.6825	-46.2856	659.8397	9.8173	172.9058	-9.2582	62.1083	4.1597	143.8872	-0.0592	0.0182	-0.0073	-0.0462	0.0165	0.9585
26.3361	-24.4348	639.6064	39.0374	-216.2906	-47.8323	681.1822	9.0249	146.6441	-7.1411	52.738	2.8591	121.9313	-0.0592	0.0182	-0.0073	-0.0462	0.0165	0.9585
26.3546	-21.7106	661.7883	41.7552	-223.3656	-49.1728	700.541	7.9026	120.9821	-5.3781	43.5572	1.9069	100.5429	-0.0592	0.0182	-0.0073	-0.0462	0.0165	0.9585
26.373	-18.803	682.1975	44.2713	-229.8789	-50.2508	717.8475	6.506	96.9332	-4.0155	34.9284	1.3213	80.5248	-0.0592	0.0182	-0.0073	-0.0462	0.0165	0.9585
26.3914	-15.9524	700.9437	46.5224	-235.8789	-51.0914	733.2928	4.9321	75.2335	-3.0096	27.1235	1.0433	62.4666	-0.0592	0.0182	-0.0073	-0.0462	0.0165	0.9585
26.4099	-13.4176	718.3095	48.4865	-241.4657	-51.7648	747.2386	3.2856	56.3091	-2.2663	20.3062	0.97507	46.7239	-0.0592	0.0182	-0.0073	-0.0462	0.0165	0.9585
26.4283	-11.4393	734.6935	50.1735	-246.7723	-52.365	760.1526	1.6936	40.3214	-1.6949	14.543	1.0124	33.4437	-0.0592	0.0182	-0.0073	-0.0462	0.0165	0.9585
26.4467	-10.2018	750.5434	51.6244	-251.9402	-52.9946	772.5301	0.3121	27.2372	-1.2351	9.8262	1.0633	22.6	-0.0592	0.0182	-0.0073	-0.0462	0.0165	0.9585
26.4651	-9.8068	766.2359	52.9074	-257.0807	-53.7511	784.7734	-0.702	16.9159	-0.85677	6.1066	1.0576	14.0693	-0.0592	0.0182	-0.0073	-0.0462	0.0165	0.9585
26.4836	-10.2454	781.913	54.1024	-262.2247	-54.7035	797.0274	-1.2472	9.1787	-0.55324	3.3201	0.96033	7.6957	-0.0592	0.0182	-0.0073	-0.0462	0.0165	0.9585
26.502	-11.3591	797.3255	55.2687	-267.2738	-55.8539	809.0182	-1.3717	3.8059	-0.32676	1.3879	0.79225	3.2869	-0.0592	0.0182	-0.0073	-0.0462	0.0165	0.9585
26.5204	-12.8487	811.7605	56.4228	-271.9793	-57.1161	819.987	-1.2406	0.4565	-0.17611	0.18753	0.60918	0.55927	-0.0592	0.0182	-0.0073	-0.0462	0.0165	0.9585
